<svg xmlns="http://www.w3.org/2000/svg" viewBox="0 0 64 64">
  <defs>
    <linearGradient id="coolzoGradient" x1="8" y1="8" x2="56" y2="56" gradientUnits="userSpaceOnUse">
      <stop offset="0" stop-color="#0f9d8a"/>
      <stop offset="1" stop-color="#1258b0"/>
    </linearGradient>
  </defs>
  <rect width="64" height="64" rx="16" fill="#06243f"/>
  <path d="M18 22c4-6 10-9 18-9 8 0 14 3 18 9l-6 4c-3-4-7-6-12-6s-9 2-12 6c-3 4-4 8-4 12s1 8 4 12c3 4 7 6 12 6s9-2 12-6l6 4c-4 6-10 9-18 9-8 0-14-3-18-9-4-5-6-10-6-16s2-11 6-16Z" fill="url(#coolzoGradient)"/>
  <circle cx="48" cy="22" r="5" fill="#7fffd4"/>
</svg>
